# xmcd
#
# Track frame offsets: 
#        155
#        20472
#        34237
#        51877
#        68120
#        81767
#        97912
#        118522
#        140565
#        156807
#        173807
#        193707
#
# Disc length: 2776 seconds
#
# Revision: 5
# Processed by: cddbd v1.5.2PL0 Copyright (c) Steve Scherf et al.
# Submitted via: ExactAudioCopyFreeDBPlugin 1.0
#
DISCID=9b0ad60c
DTITLE=Various Artist - Peace In The Valley
DYEAR=1997
DGENRE=Country
TTITLE0=Diamond Rio - Walkin' In Jerusalem
TTITLE1=BR5-49 - A House of Gold
TTITLE2=Pam Tillis - Morning Has Broken
TTITLE3=Alan Jackson - We're All God's Children
TTITLE4=BlackHawk - Farther Along
TTITLE5=Tammy Graham - Peace in the Valley
TTITLE6=Lee Roy Parnell - John the Revelator
TTITLE7=Brett James - What a Friend We Have in Jesus
TTITLE8=Steve Wariner - Why Me, Lord
TTITLE9=Brooks and Dunn - Ain't Singin' That Song No More
TTITLE10=Radney Foster - Oh Sacred Head Now Wounded
TTITLE11=Michelle Wright - People Get Ready
EXTD=YEAR: 1997
EXTT0=
EXTT1=
EXTT2=
EXTT3=
EXTT4=
EXTT5=
EXTT6=
EXTT7=
EXTT8=
EXTT9=
EXTT10=
EXTT11=
PLAYORDER=
